<svg width="305" height="327" viewBox="0 0 305 327" fill="none" xmlns="http://www.w3.org/2000/svg">
<rect x="87.4456" y="-0.384466" width="219.405" height="219.405" rx="13.4776" transform="rotate(23.639 87.4456 -0.384466)" stroke="white" stroke-width="1.16291"/>
<rect x="104.177" y="37.0651" width="220.568" height="220.568" rx="14.059" transform="rotate(23.639 104.177 37.0651)" fill="#5454D4" stroke="white" stroke-width="2.32582"/>
<mask id="mask0_135_490" style="mask-type:alpha" maskUnits="userSpaceOnUse" x="18" y="40" width="285" height="285">
<rect x="103.886" y="37.0651" width="220.568" height="220.568" rx="14.059" transform="rotate(23.639 103.886 37.0651)" fill="#5454D4" stroke="white" stroke-width="2.32582"/>
</mask>
<g mask="url(#mask0_135_490)">
<path d="M20.4648 104.883C46.7272 119.419 107.102 139.77 138.5 104.883C177.749 61.2736 254.21 69.9955 289.097 80.7524" stroke="white" stroke-width="0.581455"/>
<path d="M21.1622 121.225C48.2897 134.075 109.828 150.575 138.962 113.776C175.38 67.7764 252.239 71.6551 287.736 80.1887" stroke="white" stroke-width="0.581455"/>
<path d="M17.8888 137.791C45.0163 150.641 106.555 167.141 135.689 130.341C172.107 84.3419 248.966 88.2205 284.463 96.7541" stroke="white" stroke-width="0.581455"/>
<path d="M14.4005 154.653C41.528 167.503 103.067 184.003 132.201 147.203C168.618 101.204 245.478 105.083 280.974 113.616" stroke="white" stroke-width="0.581455"/>
<path d="M14.4005 154.653C41.528 167.503 103.067 184.003 132.201 147.203C168.618 101.204 245.478 105.083 280.974 113.616" stroke="white" stroke-width="0.581455"/>
<path d="M21.378 212.218C51.7298 224.864 120.681 240.895 153.67 203.851C194.906 157.547 281.153 160.832 320.933 169.095" stroke="white" stroke-width="0.581455"/>
<path d="M14.4005 238.142C44.7523 250.788 113.703 266.82 146.692 229.776C187.928 183.472 274.175 186.757 313.955 195.02" stroke="white" stroke-width="0.581455"/>
<path d="M15.5631 256.75C45.9149 269.396 114.866 285.427 147.855 248.384C189.091 202.08 275.338 205.365 315.118 213.627" stroke="white" stroke-width="0.581455"/>
<path d="M24.2848 275.356C54.6366 288.002 123.587 304.033 156.576 266.99C197.813 220.686 284.059 223.971 323.839 232.234" stroke="white" stroke-width="0.581455"/>
<path d="M38.8219 303.265C69.1737 315.911 138.125 331.943 171.114 294.899C212.35 248.595 298.597 251.88 338.376 260.143" stroke="white" stroke-width="0.581455"/>
<path d="M34.7511 194.774C61.8786 207.624 123.417 224.124 152.551 187.325C188.969 141.325 265.828 145.204 301.325 153.738" stroke="white" stroke-width="0.581455"/>
<path d="M10.9112 173.842C41.4465 186.476 110.819 202.48 144.028 165.423C185.538 119.102 272.319 122.353 312.343 130.6" stroke="white" stroke-width="0.581455"/>
</g>
</svg>
