<?xml version="1.0" encoding="UTF-8" standalone="no"?>
<svg
   width="48"
   height="48"
   viewBox="0 0 48 48"
   fill="none"
   version="1.1"
   id="svg3"
   sodipodi:docname="Icon Name (1).svg"
   inkscape:version="1.4.2 (ebf0e940d0, 2025-05-08)"
   xmlns:inkscape="http://www.inkscape.org/namespaces/inkscape"
   xmlns:sodipodi="http://sodipodi.sourceforge.net/DTD/sodipodi-0.dtd"
   xmlns="http://www.w3.org/2000/svg"
   xmlns:svg="http://www.w3.org/2000/svg">
  <sodipodi:namedview
     id="namedview3"
     pagecolor="#505050"
     bordercolor="#eeeeee"
     borderopacity="1"
     inkscape:showpageshadow="0"
     inkscape:pageopacity="0"
     inkscape:pagecheckerboard="0"
     inkscape:deskcolor="#505050"
     inkscape:zoom="12.770833"
     inkscape:cx="23.960848"
     inkscape:cy="24"
     inkscape:window-width="1600"
     inkscape:window-height="822"
     inkscape:window-x="0"
     inkscape:window-y="0"
     inkscape:window-maximized="1"
     inkscape:current-layer="g3" />
  <g
     clip-path="url(#clip0_48_1500)"
     id="g3">
    <path
       d="M20.1996 4H29.1996C30.3996 4 31.1996 5.2 30.9996 6.4L26.5996 20.8H31.1996C32.5996 20.8 33.5996 22.2 32.9996 23.6L23.9996 42C23.5996 42.6 22.5996 42.4 22.7996 41.6L24.9996 27.6H17.9996C16.7996 27.6 15.9996 26.6 16.1996 25.4L18.3996 5.8C18.3996 4.8 19.1996 4 20.1996 4Z"
       fill="#36B37E"
       id="path1"
       style="fill:#5454d4;fill-opacity:1" />
    <path
       d="M2.43662 16.6706L5.64445 14.8185C6.07216 14.5716 6.60763 14.8406 6.78668 15.3153L8.22241 21.4238L9.86196 20.4772C10.361 20.1891 11.0094 20.4892 11.0876 21.1185L11.7183 29.6189C11.7009 29.9181 11.3027 30.0516 11.2071 29.7214L9.07068 24.2101L6.57571 25.6506C6.14799 25.8975 5.65424 25.7008 5.4752 25.2261L2.17055 17.6914C1.96194 17.33 2.08019 16.8764 2.43662 16.6706Z"
       fill="#091E42"
       id="path2"
       style="fill:#ffffff;fill-opacity:1" />
    <path
       d="M46.6256 16.6706L43.4177 14.8185C42.99 14.5716 42.4545 14.8406 42.2755 15.3153L40.8398 21.4238L39.2002 20.4772C38.7012 20.1891 38.0527 20.4892 37.9745 21.1185L37.3439 29.6189C37.3613 29.9181 37.7595 30.0516 37.8551 29.7214L39.9915 24.2101L42.4865 25.6506C42.9142 25.8975 43.4079 25.7008 43.587 25.2261L46.8916 17.6914C47.1002 17.33 46.982 16.8764 46.6256 16.6706Z"
       fill="#091E42"
       id="path3"
       style="fill:#ffffff;fill-opacity:1" />
  </g>
  <defs
     id="defs3">
    <clipPath
       id="clip0_48_1500">
      <rect
         width="48"
         height="48"
         fill="white"
         id="rect3" />
    </clipPath>
  </defs>
</svg>
